<svg width="382" height="534" viewBox="0 0 382 534" fill="none" xmlns="http://www.w3.org/2000/svg">
<mask id="mask0_8_13" style="mask-type:alpha" maskUnits="userSpaceOnUse" x="0" y="-11" width="487" height="545">
<path d="M216.184 -11L-4.10678e-05 387.102L270.208 533.835L486.392 135.733L216.184 -11Z" fill="white"/>
</mask>
<g mask="url(#mask0_8_13)">
<path fill-rule="evenodd" clip-rule="evenodd" d="M371.032 114.484C374.872 123.844 377.938 133.519 381.188 143.114C378.681 131.65 376.836 119.422 377.737 108.106C378.696 96.058 376.999 84.6089 379.064 72.4888C380.33 65.0582 384.317 58.8983 387.58 52.3646C380.95 54.0997 374.373 56.1057 367.933 58.1586C361.111 60.3335 354.543 63.1792 347.836 65.6483C357.826 80.6069 364.155 97.7147 371.032 114.484ZM9.43006 375.746C16.8051 366.021 23.1573 355.596 30.6404 345.932C45.7945 326.37 60.6387 306.422 76.3921 287.338C83.6074 278.599 91.1271 270.03 98.1017 261.093C106.152 250.78 112.325 239.364 120.869 229.403C137.384 210.15 155.533 192.49 174.345 175.556C188.838 162.51 203.817 149.525 219.184 137.544C235.956 124.468 254.393 114.265 271.501 101.688C279.435 95.8514 286.394 88.8602 294.059 82.6932C307.423 71.941 322.834 62.8193 338.007 55.0621C360.92 43.3479 385.597 36.6035 410.261 30.279L438.644 45.3878C432.717 44.9528 426.689 46.3133 420.791 46.9881C415.464 47.5965 410.111 47.8888 404.803 48.6941C402.41 49.0586 400.017 49.5432 397.625 50.0333C399.875 57.3024 400.39 65.0583 401.861 73.1934C404.618 88.454 409.458 103.145 413.48 118.046C415.159 124.259 416.066 130.662 416.564 137.102C417.467 148.812 419.367 160.732 418.057 172.485C416.694 184.721 416.311 196.986 415.108 209.223C414.82 212.182 414.573 215.281 414.283 218.409C415.751 223.894 416.865 229.476 417.457 235.23C418.022 240.721 418.345 246.312 418.423 251.843C418.469 255.048 419.031 259.717 417.421 262.743C414.375 268.467 411.166 264 408.824 260.249C404.148 252.754 398.548 245.808 394.062 238.162C387.028 226.169 382.354 213.652 377.325 200.726C371.844 186.639 364.492 173.319 358.105 159.658C354.115 151.121 351.604 141.806 347.961 133.064C345.518 127.201 342.833 121.323 341.896 114.966C341.14 109.837 339.354 105.127 338.387 100.042C337.439 95.0522 338.845 90.7436 338.963 85.7489C339.084 80.524 339.331 74.8904 338.617 69.729C338.59 69.533 338.567 69.3753 338.54 69.1847C335.038 70.9458 331.903 73.2274 328.285 75.1735C324.122 77.4104 319.867 79.5807 315.583 81.6903C317.466 82.9306 319.502 84.3458 320.408 86.083C322.132 89.3892 321.534 95.7875 322.109 99.4163C324.753 116.103 328.913 132.538 331.767 149.203C334.189 163.338 336.804 177.39 338.279 191.692C339.596 204.465 336.858 216.328 336.316 229.065C335.907 238.734 336.895 248.042 335.898 257.747C335.151 265.046 334.442 272.352 333.779 279.658C333.117 286.973 332.139 294.223 331.178 301.507C330.757 304.695 331.002 310.068 329.719 312.587C327.154 311.155 327.032 306.477 326.383 303.967C323.612 293.263 320.748 282.741 319.332 271.726C317.904 260.613 315.712 249.87 312.013 239.324C309.192 231.282 305.782 223.757 304.658 215.196C303.014 202.687 299.243 191.222 296.19 179.185C295.071 174.769 294.412 170.294 293.098 165.937C291.812 161.674 292.441 159.265 292.74 154.992C293.034 150.76 292.753 146.841 293.752 142.607C294.738 138.433 294.395 134.346 295.577 130.237C296.955 125.444 299.359 121.093 300.522 116.227C301.629 111.594 302.865 107.626 304.676 103.224C307.181 97.144 307.943 91.0313 309.089 84.8303C306.259 86.1747 303.429 87.4995 300.608 88.7841C297.179 90.3449 294.803 92.4161 291.762 94.38C284.415 99.1255 277.368 102.968 270.643 108.741C266.182 112.569 261.731 116.408 257.265 120.23C263.99 128.324 270.895 136.298 277.457 144.523C282.958 151.421 285.451 159.071 289.209 166.944C293.006 174.891 297.116 182.929 299.363 191.572C302.17 202.388 303.098 213.606 304.305 224.694C305.92 239.51 309.61 253.929 308.32 268.971C306.891 285.626 302.956 300.511 298.072 316.471C296.72 320.882 295.839 333.193 290.218 334.515C289.059 333.293 289.86 332.143 289.472 330.64C288.65 327.43 287.37 324.314 286.285 321.153C283.69 313.586 281.772 305.869 280.147 298.01C276.229 279.057 272.518 260.088 268.27 241.212C262.68 216.367 251.61 192.341 250.317 166.661C249.818 156.801 248.412 146.774 248.393 136.923C248.387 133.614 248.412 130.822 249.051 128.33C248.397 129.544 247.98 130.942 247.831 132.779C247.043 142.424 247.264 151.508 247.748 161.003C247.998 165.907 245.635 170.012 246.205 175.084C246.571 178.346 248.123 181.617 248.309 184.741C248.554 188.858 247.872 192.762 248.426 196.971C248.923 200.739 250.191 205.065 250.309 208.683C250.548 216.077 251.34 223.032 249.924 230.342C248.879 235.732 248.694 242.728 248.671 248.129C248.65 252.941 247.118 257.791 246.973 262.681C246.845 266.978 247.101 269.792 245.942 274.034C244.807 278.188 244.668 282.29 243.764 286.474C242.987 290.059 241.524 293.564 240.321 297.026C238.644 301.868 238.46 306.593 236.97 311.367C232.129 326.862 224.571 342.532 216.57 356.67C214.626 360.104 212.451 367.105 208.97 369.269C207.734 370.036 206.233 369.295 204.83 370.256C204.302 367.097 205.403 363.175 205.428 359.97C205.479 353.199 205.299 346.374 204.93 339.627C203.887 320.613 204.295 301.256 205.126 282.193C205.72 268.512 208.907 255.167 210.812 241.618C212.906 226.728 211.934 212.116 212.607 197.188C213.104 186.151 215.535 175.576 216.648 164.631C216.792 163.224 216.668 161.194 216.896 159.291C213.947 164.071 210.259 168.172 208.529 173.943C206.708 180.026 204.61 184.534 201.678 190.095C198.261 196.572 198.024 203.78 197.346 210.888C196.019 224.821 194.081 237.965 190.888 251.622C188.884 260.19 187.481 268.585 183.523 276.553C179.848 283.952 176.99 289.717 174.823 297.652C170.901 312.033 161.664 322.567 155.123 335.765C147.343 351.462 140.732 366.356 129.574 380.057C123.231 387.846 117.206 396.218 110.669 403.802C109.385 405.291 103.959 411.682 101.683 411.22C99.5941 404.019 102.648 395.825 104.882 389.007C108.283 378.637 110.963 368.303 113.739 357.783C116.044 349.041 117.719 340.643 119.06 331.742C120.659 321.151 124.964 311.04 127.625 300.685C131.321 286.312 138.154 275.601 146.087 263.002C153.498 251.228 158.474 237.892 164.939 225.576C171.572 212.942 176.469 199.686 182.404 186.719C184.187 182.824 185.681 178.635 188.489 175.478C185.686 178.261 183.306 181.497 180.69 184.476C173.887 192.217 168.755 201.225 161.704 208.775C157.439 213.34 152.67 217.585 149.193 222.824C146.979 226.167 145.433 229.895 142.993 233.101C138.326 239.226 133.88 242.995 131.021 250.435C127.458 259.715 121.751 268.346 117.416 277.377C113.09 286.384 107.118 293.781 101.47 301.872C97.5788 307.45 94.2301 312.675 89.4945 317.65C86.5273 320.765 85.1428 324.642 82.9285 328.289C78.2648 335.965 69.0781 339.751 62.3081 344.841C59.436 347 57.0783 349.854 54.2227 352.027C50.9374 354.531 46.9486 355.581 43.248 357.262C36.3517 360.396 31.754 365.948 25.6965 370.297C22.521 372.579 19.0318 374.271 15.9693 376.745C13.789 378.507 11.8642 380.814 9.57476 382.441C7.89926 383.633 1.49549 388.079 -8.57646e-05 387.102C2.59881 383.072 6.52238 379.583 9.43006 375.746Z" fill="#94B38B"/>
</g>
</svg>
