<svg width="246" height="282" viewBox="0 0 246 282" fill="none" xmlns="http://www.w3.org/2000/svg">
<mask id="mask0_8_17" style="mask-type:alpha" maskUnits="userSpaceOnUse" x="0" y="-11" width="246" height="293">
<path d="M245.662 -11H4.68547e-06V281.737H245.662V-11Z" fill="#A7CBA7"/>
</mask>
<g mask="url(#mask0_8_17)">
<path fill-rule="evenodd" clip-rule="evenodd" d="M230.495 279.581C231.05 280.176 231.545 280.805 231.887 281.503C231.343 280.979 230.9 280.305 230.495 279.581Z" fill="#A7CBA7"/>
<path fill-rule="evenodd" clip-rule="evenodd" d="M0.869624 64.763C1.89359 58.984 4.1659 53.5563 6.27137 48.0521C6.71432 46.8954 6.98181 45.6382 7.44202 44.4791C8.06331 42.9089 8.99811 41.1355 10.048 39.7254C11.1036 38.3033 11.6443 36.6279 12.7287 35.2346C13.7009 33.9846 14.8601 32.7681 15.9531 31.5826C17.7335 29.6491 19.2925 28.5019 21.7805 27.2018C24.8121 25.6172 27.3576 24.2621 30.7891 23.2822C34.1371 22.3238 37.4679 21.2268 40.7671 20.1584C43.1515 19.3865 45.7632 18.6408 47.8054 17.343C49.0135 16.5711 48.3519 16.1074 47.6616 15.0247C45.8006 12.0946 45.4324 8.65777 44.0087 5.5675C43.002 3.38782 42.188 1.09342 41.3222 -1.13406C39.7977 -5.05366 37.0077 -8.46419 35.4027 -12.3479C34.5859 -14.3245 34.1285 -16.3655 33.1304 -18.2919C31.9885 -20.4978 30.979 -22.7349 29.9205 -24.9647C29.4372 -25.9853 29.0748 -27.0584 28.5082 -28.0431C28.2666 -28.4637 27.8265 -28.815 27.8322 -29.305C29.1553 -29.642 32.0173 -29.6252 33.4928 -29.3982C35.6242 -29.0708 35.7738 -26.872 36.1678 -25.3161C37.7095 -19.2479 38.5552 -13.4497 42.0643 -7.85713C44.0691 -4.66409 46.4075 -1.62401 48.3951 1.5762C51.326 6.29645 53.9751 11.0621 57.907 15.3283C61.7584 19.5084 66.3836 23.4853 71.0633 27.044C73.0537 28.5569 75.1995 30.3136 77.7997 30.8824C82.6837 31.9507 87.5993 33.8197 92.722 34.6753C98.4689 35.6361 103.934 37.8922 109.822 38.0811C113.155 38.1862 116.587 37.9998 119.932 37.995C127.827 37.9831 135.723 38.0667 143.616 38.0022C147.66 37.9711 151.664 37.6389 155.65 38.4133C163.246 39.8903 171.174 42.9471 178.41 45.3706C192.056 49.9426 205.131 55.8173 218.544 60.8458C214.232 60.0499 209.478 61.6202 205.16 61.895C192.648 62.6885 180.317 63.1259 167.777 63.0852C153.996 63.0422 139.986 62.9944 126.568 60.0069C114.369 57.2919 105.453 50.0717 95.095 44.3022C88.9224 40.8606 82.7987 38.4372 76.2723 35.6433C72.723 34.1208 69.9329 31.4249 66.7747 29.7017C68.3768 31.6281 69.4152 33.5018 70.7699 35.476C73.4507 39.386 77.1525 42.8802 80.8514 46.1473C82.3126 47.4379 83.7968 48.7237 85.2033 50.0597C87.0039 51.7686 88.1228 53.8766 89.8399 55.638C91.9339 57.7842 93.8236 59.995 96.0959 62.0265C97.3816 63.1737 98.6587 64.4117 99.7747 65.6664C100.387 66.3595 100.669 67.2008 101.293 67.8939C102.024 68.7089 102.749 69.1821 103.333 70.0855C104.265 71.5339 105.484 72.6859 106.514 74.0649C107.512 75.3985 108.464 76.9831 109.767 78.1375C110.823 79.0672 112.252 79.5308 113.506 80.2407C115.977 81.646 118.508 82.9844 121.134 84.1818C125.826 86.3208 127.971 90.826 132.386 93.2614C137.972 96.3421 145.074 97.7809 151.025 100.319C158.762 103.622 166.083 107.625 173.808 110.978C181.448 114.296 190.054 115.436 197.423 119.226C201.671 121.413 205.712 123.968 209.748 126.42C214.551 129.338 219.967 131.776 224.529 134.943C229.914 138.681 233.276 144.419 237.542 148.977C240.168 151.783 243.343 154.441 245.662 157.428C241.074 155.927 235.301 154.794 230.351 154.171C225.107 153.513 220.756 153.188 215.662 151.843C210.059 150.363 204.07 149.759 198.576 147.992C190.543 145.411 183.153 141.788 175.684 138.346C169.08 135.306 161.719 134.212 155.722 130.01C152.342 127.639 149.869 124.647 146.938 121.963C143.04 118.395 137.929 115.419 134.184 111.796C131.239 108.947 129.243 104.351 126.766 101.148C124.005 97.5825 121.523 93.964 118.468 90.5559C117.156 89.0932 115.459 86.7367 113.406 85.1378C115.991 90.4651 118.091 95.9525 119.613 101.438C126.386 110.343 132.775 119.676 138.197 129.123C143.716 138.741 151.408 147.467 157.948 156.632C162.87 163.53 169.103 169.048 175.514 174.834C180.01 178.893 183.151 183.644 186.706 188.304C191.794 194.973 197.874 201.055 203 207.702C211.318 218.488 215.176 231.15 219.415 243.344C222.156 251.228 224.874 259.113 227.115 267.108C227.981 270.205 228.453 275.917 230.495 279.581C229.123 278.106 227.265 276.89 225.596 275.733C218.101 270.523 210.223 265.827 203.291 260.057C191.742 250.442 179.984 240.543 173.026 228.115C167.532 218.309 165.151 207.699 163.045 197.104C161.774 190.709 160.698 184.184 158.411 177.963C156.809 173.606 154.094 169.741 151.83 165.628C148.894 160.291 144.222 155.789 141.444 150.418C139.327 146.327 138.027 141.599 137.121 137.237C136.364 133.593 136.307 131.131 133.882 127.885C132.358 125.842 131.693 123.686 130.344 121.583C127.839 117.682 123.755 114.965 121.241 111.246C120.602 112.675 121.166 114.035 121.022 115.527C120.783 118.053 119.785 120.488 119.506 123.038C118.249 134.551 114.85 145.753 113.158 157.206C111.225 170.296 107.716 183.082 102.608 195.613C100.597 200.548 98.21 205.364 96.0039 210.238C94.6722 212.563 93.8438 214.998 93.5216 217.549C93.7575 218.701 93.4555 219.704 92.6185 220.56C89.699 218.497 88.7786 214.2 87.8668 211.401C85.9684 205.582 83.7795 199.779 82.4047 193.852C80.676 186.388 79.2752 179.038 79.2522 171.448C79.2378 165.989 80.5811 162.493 83.2043 157.531C85.6233 152.952 89.1755 149.13 91.862 144.642C95.4027 138.719 95.2877 132.338 97.8649 126.186C99.0672 123.837 100.08 121.432 100.899 118.971C101.558 116.392 102.093 113.799 102.499 111.186C103.94 108.758 107.555 107.604 109.511 105.247C111.605 102.723 114.139 99.7789 113.857 96.6743C113.636 94.2795 112.261 91.7844 111.332 89.3848C108.645 84.0001 105.74 78.7039 102.001 73.6705C98.6904 69.2132 94.8534 65.0116 90.49 61.2425C87.8581 65.9174 82.8764 70.2983 79.1199 74.4879C73.3097 80.9696 69.4555 88.228 64.9022 95.3239C61.1314 101.199 56.8802 107.119 54.4411 113.366C53.5149 115.739 51.4526 117.281 49.8102 119.3C47.4085 122.257 45.1247 125.359 43.2148 128.552C41.2819 131.781 38.814 135.182 37.7814 138.71C36.9876 141.417 37.5772 143.695 36.28 146.42C34.2378 150.71 30.4785 153.841 29.1611 158.449C28.3816 161.171 28.2637 164.512 26.42 166.936C22.1458 162.703 22.2407 153.812 21.6482 148.501C20.6673 139.728 19.7929 130.949 20.2704 122.133C20.6788 114.578 24.2915 105.864 28.7009 99.148C33.257 92.2146 41.9866 86.8371 47.6415 80.4892C52.442 75.095 58.9713 71.0105 63.9185 65.7166C66.9531 62.471 67.8246 60.2316 67.7613 56.1447C67.6549 49.3834 68.2905 43.0881 65.8399 36.5156C64.0882 31.8097 60.4727 27.718 58.5255 23.0814C57.9646 21.7526 57.8294 19.9147 56.3912 19.0686C53.6127 20.5241 49.3212 25.6722 47.7882 27.1659C38.4516 36.2766 30.1995 46.6612 22.1975 56.5605C11.8111 69.4044 3.70282 82.3749 1.51681 97.9075C2.31068 94.1672 0.582001 86.9518 0.374906 84.1674C-0.116945 77.6236 -0.280903 71.2734 0.869624 64.763Z" fill="#A7CBA7"/>
</g>
</svg>
