<svg width="429" height="316" viewBox="0 0 429 316" fill="none" xmlns="http://www.w3.org/2000/svg">
<path d="M371 146.848C373.761 146.848 376 144.61 376 141.848C376 139.087 373.761 136.848 371 136.848C368.239 136.848 366 139.087 366 141.848C366 144.61 368.239 146.848 371 146.848Z" fill="#FF6584"/>
<path d="M94.578 239.253C122.726 291.444 182.467 313.848 182.467 313.848C182.467 313.848 196.57 251.635 168.422 199.444C140.274 147.253 80.5332 124.848 80.5332 124.848C80.5332 124.848 66.4298 187.062 94.578 239.253Z" fill="#87A75D"/>
<path d="M113.621 222.308C164.431 252.965 184 313.857 184 313.857C184 313.857 121.189 325.045 70.3788 294.388C19.5686 263.732 0 202.84 0 202.84C0 202.84 62.811 191.652 113.621 222.308Z" fill="#2F7D3C"/>
<path d="M315.194 222.578C264.108 252.816 244 313.598 244 313.598C244 313.598 306.719 325.356 357.806 295.118C408.892 264.881 429 204.099 429 204.099C429 204.099 366.281 192.341 315.194 222.578Z" fill="#2F7D3C"/>
<path d="M333.739 241.069C305.134 292.984 245.207 314.848 245.207 314.848C245.207 314.848 231.657 252.543 260.261 200.628C288.866 148.713 348.793 126.848 348.793 126.848C348.793 126.848 362.343 189.154 333.739 241.069Z" fill="#87A75D"/>
<path d="M229.881 98.8885C223.866 93.4457 223.024 84.2992 227.944 77.8484C227.63 78.143 227.323 78.4489 227.029 78.7741C221.25 85.1677 221.747 95.0371 228.138 100.818C234.528 106.599 244.393 106.102 250.171 99.7084C250.465 99.3832 250.739 99.0469 251 98.7047C245.079 104.25 235.898 104.33 229.881 98.8885Z" fill="#2F2E41"/>
<path d="M215.5 109.848C233.449 109.848 248 95.2977 248 77.3484C248 59.3992 233.449 44.8484 215.5 44.8484C197.551 44.8484 183 59.3992 183 77.3484C183 95.2977 197.551 109.848 215.5 109.848Z" fill="#2F2E41"/>
<path d="M206.238 118.879L207.212 116.374L189.476 131.214L168.038 143.163C168.038 143.163 157.123 101.534 156.344 100.763C155.564 99.9923 141.532 70.6981 135.295 84.5743C129.058 98.4505 147.378 106.545 147.378 106.545C147.378 106.545 147.963 157.232 166.673 156.846C185.384 156.461 208.576 139.694 208.966 138.152C209.356 136.61 206.238 118.879 206.238 118.879Z" fill="#FFB8B8"/>
<path d="M211.5 110.848C222.27 110.848 231 102.118 231 91.3484C231 80.5789 222.27 71.8484 211.5 71.8484C200.73 71.8484 192 80.5789 192 91.3484C192 102.118 200.73 110.848 211.5 110.848Z" fill="#FFB8B8"/>
<path d="M214.879 105.598C214.879 105.598 219.943 112.167 218.385 112.939C216.827 113.712 207.868 114.098 202.414 120.667C196.961 127.235 209.036 143.848 209.036 143.848L255 113.326L236.303 107.144C236.303 107.144 223.449 100.189 223.838 92.8484L214.879 105.598Z" fill="#FFB8B8"/>
<path d="M277 315.848H225.37C222.445 294.511 221.093 274.957 221.093 274.957C221.093 274.957 220.339 294.626 218.331 315.848H152C161.403 253.008 205.978 184.864 205.978 184.864C205.978 184.864 206.366 175.581 207.529 174.033C208.693 172.49 200.941 172.103 197.451 160.504C195.323 153.423 197.236 148.789 199.055 146.258C199.679 145.346 200.447 144.54 201.329 143.873C201.329 143.873 202.105 135.757 201.329 134.596C201.23 134.444 201.995 133.911 203.41 133.1C204.589 132.42 206.219 131.547 208.169 130.543C219.338 124.764 240.957 114.54 248.363 111.056C249.987 110.288 250.931 109.848 250.931 109.848L264.107 114.487C274.568 117.965 274.568 140.008 274.568 140.008L273.976 140.908L258.164 164.808L248.992 178.677C251.319 180.22 246.67 189.89 246.67 189.89C246.67 189.89 253.295 199.387 258.682 213.884C261.729 221.952 263.807 230.352 264.872 238.908C265.551 244.453 265.685 250.051 265.27 255.623C263.834 274.251 270.218 296.891 277 315.848Z" fill="#D8EDB5"/>
<path d="M263.951 116.283C263.091 115.794 262.063 115.714 261.139 116.063C260.216 116.412 259.492 117.156 259.161 118.095C258.007 121.303 256.838 127.991 257.255 141.896C258.021 167.469 258.404 184.905 258.404 184.905V223.652C258.404 223.652 241.551 260.848 250.744 260.848C259.936 260.848 266.447 231.401 266.447 231.401C266.447 231.401 274.874 186.842 272.192 179.093C272.192 179.093 279.752 125.558 263.951 116.283Z" fill="#FFB8B8"/>
<path d="M209.5 85.8484C218.613 85.8484 226 80.6997 226 74.3484C226 67.9971 218.613 62.8484 209.5 62.8484C200.387 62.8484 193 67.9971 193 74.3484C193 80.6997 200.387 85.8484 209.5 85.8484Z" fill="#2F2E41"/>
<path d="M236 64.8484C244.837 64.8484 252 57.685 252 48.8484C252 40.0119 244.837 32.8484 236 32.8484C227.163 32.8484 220 40.0119 220 48.8484C220 57.685 227.163 64.8484 236 64.8484Z" fill="#2F2E41"/>
<path d="M247 60.233C238.682 60.2319 231.752 53.9786 231.06 45.8484C231.023 46.28 231 46.7153 231 47.1561C231 55.8227 238.163 62.8484 247 62.8484C255.837 62.8484 263 55.8227 263 47.1561C263 46.7153 262.977 46.28 262.94 45.8484C262.248 53.9786 255.318 60.2319 247 60.233Z" fill="#2F2E41"/>
<path d="M230.389 87.8668C231.118 87.6928 231.386 86.2018 230.988 84.5366C230.591 82.8714 229.677 81.6626 228.949 81.8366C228.22 82.0106 227.952 83.5016 228.35 85.1668C228.748 86.832 229.661 88.0408 230.389 87.8668Z" fill="#FFB8B8"/>
<path d="M230 87.8484C230.552 87.8484 231 87.4007 231 86.8484C231 86.2961 230.552 85.8484 230 85.8484C229.448 85.8484 229 86.2961 229 86.8484C229 87.4007 229.448 87.8484 230 87.8484Z" fill="#F2F2F2"/>
<path d="M113.073 12.1301C114.773 8.8244 113.476 4.76905 110.176 3.07228C106.877 1.3755 102.824 2.67984 101.124 5.98559C99.4238 9.29135 100.721 13.3467 104.021 15.0435C107.32 16.7402 111.373 15.4359 113.073 12.1301Z" fill="white"/>
</svg>
